<svg xmlns="http://www.w3.org/2000/svg" width="356" height="245" viewBox="0 0 356 245">
  <g fill="none" fill-rule="evenodd">
    <rect width="356" height="245" fill="#434343"/>
    <path fill="#C8A0A0" d="M160.548717,100.714286 C161.408718,97.3011983 162.232334,95.0936173 163.019563,94.0915429 C163.807265,93.0888675 165.15091,92.3916865 167.050498,92 L189.221047,92 C191.045429,92.2893487 192.389211,92.9865296 193.252394,94.0915429 C194.115043,95.1958734 195.041305,97.4034543 196.031182,100.714286 L201,100.714286 C208.731986,100.714286 215,106.982299 215,114.714286 L215,139 C215,146.731986 208.731986,153 201,153 L155,153 C147.268014,153 141,146.731986 141,139 L141,114.714286 C141,106.982299 147.268014,100.714286 155,100.714286 L160.548717,100.714286 Z M178,140.263736 C185.711146,140.263736 191.962264,134.2614 191.962264,126.857143 C191.962264,119.452886 185.711146,113.450549 178,113.450549 C170.288854,113.450549 164.037736,119.452886 164.037736,126.857143 C164.037736,134.2614 170.288854,140.263736 178,140.263736 Z M178,135 C173.581722,135 170,131.642136 170,127.5 C170,123.357864 173.581722,120 178,120 C182.418278,120 186,123.357864 186,127.5 C186,131.642136 182.418278,135 178,135 Z"/>
  </g>
</svg>
