<svg xmlns="http://www.w3.org/2000/svg" width="64" height="64" viewBox="0 0 64 64">
  <defs>
    <linearGradient id="logotype-a" x1="50%" x2="50%" y1="1.164%" y2="87.888%">
      <stop offset="0%" stop-color="#DA3030"/>
      <stop offset="100%" stop-color="#7B99E1"/>
    </linearGradient>
  </defs>
  <g fill="none" fill-rule="evenodd" transform="translate(8)">
    <path fill="url(#logotype-a)" d="M24.5,64 C40.8333333,46.757254 49,33.6131143 49,24.5675808 C49,10.9992806 38.0309764,0 24.5,0 C10.9690236,0 0,10.9992806 0,24.5675808 C0,33.6131143 8.16666667,46.757254 24.5,64 Z"/>
    <path fill="#FFF" fill-rule="nonzero" d="M32.6991585,28.4631376 L43,31.6382152 C42.3080844,34.5839963 40.8601428,37.1465876 39.3725243,39.1222013 C37.8849059,41.097815 36.3965748,42.4863919 34.191094,43.4918381 C31.9856131,44.4972844 29.1790727,45 25.7713885,45 C21.637193,45 18.2598308,44.3870398 15.6392006,43.1611009 C13.0185703,41.935162 10.7569053,39.7787767 8.85413745,36.6918803 C6.95136964,33.6049839 6,29.6538158 6,24.8382574 C6,18.4175128 7.67354568,13.4829624 11.0206872,10.0344582 C14.3678288,6.58595387 18.1531799,4 24.2766327,4 C29.068148,4 33.7845819,5.84951963 36.5262973,7.82513334 C39.2680128,9.80074704 41.3048087,12.8346797 42.6367461,16.9270224 L32.2580645,19.2818716 C31.8948088,18.1000313 31.514261,17.2357132 31.1164095,16.6888916 C30.4590897,15.7716424 29.65475,15.0660766 28.7033661,14.5721732 C27.7519822,14.0782698 26.6881779,13.8313218 25.5119215,13.8313218 C22.8480465,13.8313218 20.8069262,14.9249487 19.3884993,17.1122353 C18.3160302,18.7350608 17.7798036,21.283917 17.7798036,24.7588804 C17.7798036,29.062896 18.4198159,32.0130428 19.6998597,33.6094092 C20.9799035,35.2057756 22.778857,36.0039469 25.0967742,36.0039469 C27.3454998,36.0039469 29.0449919,35.3601181 30.1953015,34.0724413 C31.3456112,32.7847645 32.1802218,30.9150153 32.6991585,28.4631376 Z"/>
  </g>
</svg>
